<svg xmlns="http://www.w3.org/2000/svg" xmlns:xlink="http://www.w3.org/1999/xlink" version="1.0" width="64" height="64" viewBox="0 0 504 504"><path d="m48 132 16 170 62 93-23 47c37 28 216 31 297 0l-23-47 62-93 16-170-78 147-16-186-70 178-40-194-39 194-70-178-16 186-78-147z" style="fill:#fff;stroke:#000;stroke-width:16px"/><circle cx="40" cy="110" r="26" style="fill:#fff;stroke:#000;stroke-width:16px" id="circle"/><use transform="translate(98 -37)" xlink:href="#circle"/><use transform="translate(210 -58)" xlink:href="#circle"/><use transform="translate(322 -38)" xlink:href="#circle"/><use transform="translate(420 -1)" xlink:href="#circle"/><path d="M103 442c99-42 191-45 289 0M126 395c93-30 148-36 251 0M95 349c99-42 208-45 306 0" style="fill:#fff;stroke:#000;stroke-width:16px"/><path d="m72 302 22-19c22 9 60-3 75-18 20 13 52 19 83-13 31 33 57 27 86 16 25 20 50 23 76 16l19 21" style="fill:none;stroke:#000;stroke-width:16px"/></svg>