<svg xmlns:osb="http://www.openswatchbook.org/uri/2009/osb" xmlns="http://www.w3.org/2000/svg" xmlns:xlink="http://www.w3.org/1999/xlink" version="1.0" width="100" height="100" viewBox="0 0 787.5 787.5" id="svg2"><defs id="defs3729"><linearGradient id="linearGradient5953"><stop style="stop-color:#a0a;stop-opacity:1" offset="0" id="stop5949"/><stop style="stop-color:#a0a;stop-opacity:0" offset="1" id="stop5951"/></linearGradient><linearGradient id="linearGradient5837" osb:paint="solid"><stop style="stop-color:#010001;stop-opacity:1" offset="0" id="stop5835"/></linearGradient><linearGradient xlink:href="#linearGradient5953" id="linearGradient5955" x1="399.927" y1="754.785" x2="415.119" y2="101.704" gradientUnits="userSpaceOnUse" gradientTransform="translate(-3.63 7.582)"/><filter style="color-interpolation-filters:srgb" id="filter6761" x="-.162" width="1.325" y="-.162" height="1.325"><feGaussianBlur stdDeviation="51.065" id="feGaussianBlur6763"/></filter></defs><g id="layer1" style="display:inline"><g id="g3735" style="fill:#d753bb;fill-opacity:1;stroke:#fff;stroke-width:1.48819px;stroke-miterlimit:4;stroke-dasharray:none;stroke-opacity:1;paint-order:stroke fill markers"><path id="path3747" style="fill:#d753bb;fill-opacity:1;fill-rule:evenodd;stroke:#fff;stroke-width:1.50519px;stroke-linejoin:round;stroke-miterlimit:4;stroke-dasharray:none;stroke-opacity:1;paint-order:stroke fill markers" d="M746.545 607.79H42.412v-23.197h704.133Z"/><path id="path3743" style="fill:#d753bb;fill-opacity:1;fill-rule:evenodd;stroke:#fff;stroke-width:1.50519px;stroke-linejoin:round;stroke-miterlimit:4;stroke-dasharray:none;stroke-opacity:1;paint-order:stroke fill markers" d="M5.943 794.466v-26.029l36.47-183.844v23.198z"/><path id="path3739" style="fill:#d753bb;fill-opacity:1;fill-rule:evenodd;stroke:#fff;stroke-width:1.50519px;stroke-linejoin:round;stroke-miterlimit:4;stroke-dasharray:none;stroke-opacity:1;paint-order:stroke fill markers" d="M796.013 794.466H5.943l36.47-186.675h704.132Z"/><path id="path3737" style="fill:#d753bb;fill-opacity:1;fill-rule:evenodd;stroke:#fff;stroke-width:1.50519px;stroke-linejoin:round;stroke-miterlimit:4;stroke-dasharray:none;stroke-opacity:1;paint-order:stroke fill markers" d="M796.013 794.466v-26.029l-49.468-183.844v23.198z"/><path id="path3741" style="fill:#d753bb;fill-opacity:1;fill-rule:evenodd;stroke:#fff;stroke-width:1.50519px;stroke-linejoin:round;stroke-miterlimit:4;stroke-dasharray:none;stroke-opacity:1;paint-order:stroke fill markers" d="M796.013 794.466H5.943v-26.029h790.07Z"/><path id="path3745" style="fill:#d753bb;fill-opacity:1;fill-rule:evenodd;stroke:#fff;stroke-width:1.50519px;stroke-linejoin:round;stroke-miterlimit:4;stroke-dasharray:none;stroke-opacity:1;paint-order:stroke fill markers" d="M796.013 768.437H5.943l36.47-183.844h704.132Z"/></g></g><g id="layer3" style="display:inline"><circle style="opacity:1;fill:url(#linearGradient5955);fill-opacity:1;stroke:#fff;stroke-width:21.6383px;stroke-miterlimit:4;stroke-dasharray:none;stroke-opacity:0;filter:url(#filter6761)" id="path3838" cx="390.639" cy="394.952" r="377.311" transform="matrix(.73045 0 0 .8317 105.607 120.727)"/></g><g id="layer2"><path d="M292.204 681.053c-31.031-2.157-59.873-8.134-83.016-17.201-14.002-5.486-31.482-14.418-33.007-16.866-.48-.77 5.56-16.068 13.423-33.995 7.862-17.927 14.295-33.375 14.295-34.33 0-1.865-23.759-56.379-28.455-65.287-1.559-2.958-14.951-20.013-29.76-37.9l-26.926-32.523-1.776-14.298c-.976-7.865-8.31-66.136-16.298-129.492L86.162 183.968l-8.538-1.057c-24.648-3.054-39.37-24.793-31.897-47.104 3.176-9.482 8.031-15.346 17.07-20.615 5.91-3.446 8.657-4.058 18.201-4.058 9.545 0 12.292.612 18.203 4.058 9.038 5.27 13.893 11.133 17.069 20.615 5.423 16.192-1.639 34.302-16.617 42.615-1.732.961 9.355 24.722 54.982 117.825 31.433 64.141 57.242 116.743 57.353 116.892.307.413 16.04-279.14 15.96-283.62-.058-3.35-.994-4.143-6.514-5.521-8.948-2.235-18.058-9.202-23.055-17.632-3.627-6.12-4.222-8.711-4.222-18.387 0-9.94.534-12.125 4.54-18.58 15.062-24.27 49.299-24.27 64.36 0 4.017 6.472 4.54 8.627 4.54 18.696 0 10.054-.527 12.234-4.523 18.696-2.7 4.366-7.57 9.31-12.078 12.262l-7.554 4.946 47.294 135.888c26.012 74.738 47.634 135.887 48.049 135.886.52 0 49.662-277.292 53.028-299.218.101-.661-2.346-2.088-5.44-3.17-8.267-2.895-15.495-8.928-20.196-16.86-3.554-5.995-4.156-8.64-4.156-18.274 0-9.94.535-12.125 4.54-18.58 15.063-24.269 49.3-24.269 64.361 0 4.006 6.455 4.54 8.64 4.54 18.58 0 9.634-.601 12.28-4.155 18.274-4.702 7.932-11.929 13.965-20.197 16.86-3.093 1.082-5.54 2.509-5.44 3.17 3.367 21.926 52.509 299.218 53.029 299.218.415 0 22.037-61.148 48.049-135.886l47.294-135.888-7.554-4.946c-4.509-2.952-9.378-7.896-12.078-12.262-3.997-6.462-4.524-8.642-4.524-18.696 0-10.069.523-12.224 4.54-18.696 15.062-24.27 49.299-24.27 64.36 0 4.006 6.455 4.54 8.64 4.54 18.58 0 9.676-.595 12.268-4.221 18.387-4.997 8.43-14.107 15.397-23.056 17.632-5.52 1.378-6.455 2.171-6.514 5.52-.079 4.48 15.653 284.034 15.96 283.62.112-.148 25.92-52.75 57.354-116.891 45.626-93.103 56.714-116.864 54.981-117.825-14.978-8.313-22.04-26.423-16.616-42.615 3.176-9.482 8.03-15.346 17.069-20.615 5.91-3.446 8.658-4.058 18.202-4.058 9.545 0 12.292.612 18.202 4.058 9.039 5.27 13.894 11.133 17.07 20.615 7.472 22.311-7.25 44.05-31.897 47.104l-8.538 1.057L696.8 299.161c-7.987 63.356-15.321 121.627-16.298 129.492l-1.775 14.298-26.926 32.522c-14.81 17.888-28.202 34.943-29.76 37.9-4.697 8.91-28.456 63.423-28.456 65.289 0 .954 6.433 16.402 14.296 34.33 7.862 17.926 13.903 33.224 13.423 33.994-3.439 5.518-39.48 20.493-62.646 26.03-33.565 8.02-40.278 8.416-149.424 8.792-55.642.192-108.306-.148-117.03-.755zm-88.605-25.744c7.783-3.974 52.17-18.388 70.743-22.972 42.942-10.598 75.191-14.307 124.4-14.307 38.672 0 56.33 1.351 88.275 6.754 31.806 5.38 68.504 15.578 99.389 27.622l13.055 5.09 6.127-3.1c6.848-3.464 8.238-5.717 6.868-11.132-1.222-4.826-9.258-8.802-36.857-18.235-94.486-32.293-189.27-38.509-285.52-18.725-33.063 6.797-79.936 21.148-97.02 29.707-11.084 5.551-11.732 12.95-1.6 18.253 6.91 3.616 7.078 3.63 12.14 1.045zm48.265-76.407c29.901-12.766 60.862-21.483 94.42-26.581 24.033-3.652 80.74-3.665 104.915-.024 34.98 5.268 68.707 15.133 102.531 29.989 15.398 6.763 18.503 7.658 22.168 6.391 8.252-2.853 9.737-12.152 2.857-17.893-10.37-8.654-60.731-27.229-93.083-34.332-33.909-7.445-49.293-9.046-86.93-9.046-37.637 0-53.021 1.601-86.93 9.046-32.352 7.103-82.713 25.678-93.083 34.332-6.776 5.653-5.679 14.206 2.245 17.51 3.823 1.594 5.428 1.586 9.144-.049 2.478-1.09 12.264-5.294 21.746-9.343zm-35.22-64.22c37.337-13.876 77.358-23.63 119.898-29.22 27.372-3.597 97.027-3.597 124.4 0 42.725 5.615 82.548 15.34 120.353 29.39 22.424 8.333 25.976 8.454 30.18 1.029 3.465-6.124.826-11.616-7.567-15.748-12.413-6.111-48.644-17.922-73.582-23.987-49.438-12.024-80.13-15.682-131.584-15.682-23.34 0-46.208.792-55.455 1.92-51.625 6.299-96.709 17.088-139.003 33.264-15.706 6.007-19.87 9.3-19.87 15.719 0 3.963 6.183 10.75 9.793 10.75 1.34 0 11.436-3.346 22.437-7.435z" style="fill:#fff;fill-opacity:1;stroke:#000;stroke-width:27.1832px;stroke-linecap:butt;stroke-linejoin:round;stroke-miterlimit:5;stroke-dasharray:none;stroke-dashoffset:0;stroke-opacity:1;paint-order:stroke fill markers" id="path2161"/></g></svg>